# xmcd
#
# Track frame offsets:
#	150
#	16888
#	36110
#	54004
#	67700
#	85692
#	100107
#	116246
#	129863
#	144093
#	166159
#	182496
#	198562
#	214178
#	227158
#	244071
#	259025
#	273950
#	286734
#	305919
#
# Disc length: 4292 seconds
#
# Revision: 1
# Processed by: cddbd v1.5.2PL0 Copyright (c) Steve Scherf et al.
# Submitted via: audiograbber 1.83.01
#
DISCID=0610c214
DTITLE=Alabama - Down Home CD2
DYEAR=2013
DGENRE=Country
TTITLE0=Touch Me When You're Dancin'
TTITLE1=You've Got The Touch
TTITLE2=Tar Top
TTITLE3=Face To Face
TTITLE4=Fallin' Again
TTITLE5=Song Of The South
TTITLE6=If I Had You
TTITLE7=High Cotton
TTITLE8=Southern Star
TTITLE9=Pass It On Down
TTITLE10=Jukebox In My Mind
TTITLE11=Forever's As Far As I'll Go
TTITLE12=Down Home
TTITLE13=Here We Are
TTITLE14=Then Again
TTITLE15=Born Country
TTITLE16=Take A Little Trip
TTITLE17=I'm In A Hurry
TTITLE18=Once Upon A Lifetime
TTITLE19=Christmas In Dixie
EXTD=
EXTT0=
EXTT1=
EXTT2=
EXTT3=
EXTT4=
EXTT5=
EXTT6=
EXTT7=
EXTT8=
EXTT9=
EXTT10=
EXTT11=
EXTT12=
EXTT13=
EXTT14=
EXTT15=
EXTT16=
EXTT17=
EXTT18=
EXTT19=
PLAYORDER=
